<?xml version="1.0" encoding="utf-8"?>
<!-- Generator: Adobe Illustrator 22.1.0, SVG Export Plug-In . SVG Version: 6.00 Build 0)  -->
<svg version="1.1" id="Layer_1" xmlns="http://www.w3.org/2000/svg" xmlns:xlink="http://www.w3.org/1999/xlink" x="0px" y="0px"
	 viewBox="0 0 508 508" style="enable-background:new 0 0 508 508;" xml:space="preserve">
<style type="text/css">
	.st0{fill:#3E4C68;}
	.st1{fill:#FFFFFF;}
</style>
<circle class="st0" cx="253.9" cy="254" r="253.9"/>
<path class="st1" d="M253.4,254.1c42.1,0,76.2-34.1,76.2-76.2s-34.1-76.2-76.2-76.2s-76.2,34.1-76.2,76.2S211.3,254.1,253.4,254.1z
	 M306.8,273.2h-9.9c-13.2,6.1-27.9,9.5-43.4,9.5s-30.1-3.5-43.4-9.5H200c-44.2,0-80,35.9-80,80V378c0,15.8,12.8,28.6,28.6,28.6
	h209.7c15.8,0,28.6-12.8,28.6-28.6v-24.8C386.8,309,351,273.2,306.8,273.2z"/>
</svg>
